<svg class="img-fluid" id="outputsvg" xmlns="http://www.w3.org/2000/svg" style="transform: none; transform-origin: 50% 50%; cursor: move;" width="397" height="148" viewBox="0 0 3970 1480"><g id="l5rb8aWpIz7hrvplba1SScL" fill="rgb(0,0,0)" style="transform: none;"><g><path id="ppg6PuysT" d="M0 1340 l0 -70 1915 0 1915 0 0 -520 0 -520 -1852 2 -1853 3 -3 248 -2 247 52 0 c95 1 108 26 108 199 l0 131 -70 0 -70 0 0 -90 c0 -53 -4 -90 -10 -90 -6 0 -10 37 -10 90 l0 90 -60 0 -60 0 0 -485 0 -485 1985 0 1985 0 0 660 0 660 -1985 0 -1985 0 0 -70z"></path><path id="pWBbS94Es" d="M399 1047 c-46 -30 -69 -80 -69 -147 0 -68 23 -117 70 -148 31 -21 44 -23 117 -20 88 3 117 19 149 80 20 38 18 135 -4 178 -28 57 -73 80 -157 80 -58 0 -79 -4 -106 -23z m120 -163 c-14 -14 -17 -14 -29 0 -10 13 -10 19 0 32 12 14 15 14 29 0 14 -15 14 -17 0 -32z"></path><path id="pCXEoylyL" d="M1343 1050 c-47 -28 -63 -67 -63 -152 0 -124 44 -168 167 -168 78 0 123 21 147 68 20 38 33 152 17 152 -6 0 -11 10 -11 23 0 30 -25 64 -60 82 -44 23 -157 20 -197 -5z"></path><path id="pwPUKAwpM" d="M2106 1060 c-65 -21 -96 -73 -96 -165 0 -113 45 -164 153 -172 51 -4 70 0 106 19 64 33 83 74 78 163 -6 112 -46 155 -151 161 -34 2 -74 -1 -90 -6z"></path><path id="puDMVCx6l" d="M2915 1057 c-46 -21 -55 -52 -55 -197 l0 -130 70 0 70 0 0 89 c0 50 4 92 9 95 13 9 21 -31 21 -112 l0 -73 68 3 67 3 3 163 2 162 -38 0 c-22 0 -72 2 -113 5 -52 4 -83 1 -104 -8z"></path><path id="pvgIMMxqW" d="M730 901 l0 -159 103 -5 c175 -10 296 -8 318 3 37 20 49 70 49 200 l0 120 -70 0 -70 0 0 -77 c0 -80 -11 -120 -24 -88 -3 9 -6 50 -6 91 l0 74 -70 0 -70 0 0 -91 c0 -57 -4 -88 -10 -84 -5 3 -10 44 -10 91 l0 84 -70 0 -70 0 0 -159z"></path><path id="pV4O5Ha90" d="M1737 1053 c-10 -9 -9 -311 1 -316 4 -3 50 -6 102 -8 l95 -4 0 70 c0 65 -1 70 -23 73 -31 5 -42 38 -42 123 l0 69 -63 0 c-35 0 -67 -3 -70 -7z"></path><path id="pRfYuyc0k" d="M2450 896 l0 -163 108 -7 c116 -7 145 -2 177 34 18 20 20 36 20 159 l0 136 -67 3 -68 3 0 -73 c0 -81 -8 -121 -21 -112 -5 3 -9 45 -9 95 l0 89 -70 0 -70 0 0 -164z"></path></g></g><g id="l7P2RUo2OT3lPMl3WOFcyEK" fill="rgb(255,255,255)" style="transform: none;"><g><path id="pcmtSWM6V" d="M0 740 l0 -740 1985 0 1985 0 0 740 0 740 -1985 0 -1985 0 0 -740z m3950 10 l0 -630 -1970 0 -1970 0 0 455 0 455 40 0 40 0 0 -90 c0 -79 2 -91 20 -100 14 -8 26 -8 40 0 18 9 20 21 20 100 l0 90 40 0 40 0 0 -101 c0 -100 -8 -132 -39 -156 -20 -15 -76 -17 -102 -3 -19 11 -19 6 -17 -277 l3 -288 1882 -3 1883 -2 0 550 0 550 -1925 0 -1925 0 0 40 0 40 1970 0 1970 0 0 -630z m-3373 270 c87 -53 96 -158 19 -229 -36 -34 -118 -40 -163 -12 -92 58 -94 178 -4 238 43 29 104 30 148 3z m933 5 c27 -14 60 -51 60 -67 0 -12 -78 -10 -85 2 -9 14 -68 13 -83 -2 -31 -31 -14 -38 87 -38 l98 0 -7 -37 c-9 -53 -26 -81 -63 -103 -63 -39 -150 -19 -187 43 -24 39 -26 107 -5 148 32 61 121 87 185 54z m746 -11 c21 -14 54 -56 54 -69 0 -12 -71 -4 -99 13 -28 15 -33 16 -58 2 -55 -31 -41 -40 67 -40 l103 0 -6 -40 c-14 -108 -131 -160 -220 -98 -91 65 -68 215 39 248 36 11 89 4 120 -16z m777 12 c15 -8 27 -11 27 -5 0 5 18 9 40 9 l41 0 -3 -132 -3 -133 -37 -3 -38 -3 0 75 c0 93 -11 126 -43 126 -39 0 -47 -18 -47 -112 l0 -88 -40 0 -40 0 0 100 c0 113 11 147 55 166 39 17 54 17 88 0z m-2193 -80 c0 -85 12 -116 44 -116 28 0 36 26 36 112 l0 88 40 0 40 0 0 -78 c0 -80 16 -122 45 -122 29 0 45 42 45 122 l0 78 40 0 40 0 0 -90 c0 -98 -15 -151 -48 -169 -32 -17 -87 -13 -113 8 -23 18 -24 18 -50 -1 -21 -16 -36 -19 -66 -14 -21 4 -59 6 -85 6 l-48 -1 0 130 0 131 40 0 40 0 0 -84z m1000 15 c0 -85 11 -118 42 -123 18 -2 24 -10 26 -37 4 -44 -7 -54 -41 -36 -15 8 -27 9 -27 4 0 -6 -17 -9 -37 -7 l-38 3 -3 119 c-1 66 0 126 2 133 3 7 21 13 41 13 l35 0 0 -69z m720 -19 c0 -94 8 -112 47 -112 32 0 43 33 43 126 l0 75 38 -3 37 -3 0 -107 c0 -98 -2 -108 -24 -132 -32 -34 -73 -42 -113 -21 -21 10 -34 12 -36 5 -2 -5 -19 -10 -38 -10 l-34 0 0 135 0 135 40 0 40 0 0 -88z"></path><path id="p5IFf3Z9p" d="M483 960 c-23 -10 -43 -39 -43 -65 0 -21 44 -65 65 -65 23 0 65 45 65 70 0 20 -41 71 -57 69 -4 0 -18 -4 -30 -9z"></path><path id="p17BKzbIHi" d="M1390 862 c0 -29 74 -44 98 -20 22 22 13 28 -43 28 -30 0 -55 -4 -55 -8z"></path><path id="p1EFwUa5nA" d="M2122 858 c3 -7 16 -20 30 -28 21 -11 31 -12 52 -2 14 6 26 18 26 27 0 12 -13 15 -56 15 -40 0 -55 -3 -52 -12z"></path></g></g></svg>