<svg width="802" height="883" viewBox="0 0 802 883" fill="none" xmlns="http://www.w3.org/2000/svg">
<path d="M400.77 0L416.1 4.38L429.24 13.14V17.52L440.19 21.9V26.28L448.95 30.66L479.61 56.94L512.46 87.6L534.36 107.31L556.26 127.02L567.21 135.78L578.16 146.73L584.73 153.3L586.92 120.45L593.49 113.88L600.06 111.69L648.24 109.5L694.23 111.69L707.37 118.26L716.13 129.21L720.51 140.16L722.7 284.7L733.65 295.65L746.79 310.98V315.36L753.36 317.55L768.69 335.07V339.45H773.07L777.45 350.4L786.21 354.78V361.35H790.59L799.35 378.87L801.54 387.63V409.53L792.78 431.43L781.83 446.76H777.45L773.07 455.52L753.36 475.23L729.27 494.94L720.51 499.32H711.75L713.94 624.15L718.32 856.29L711.75 871.62L700.8 876L604.44 878.19L444.57 880.38L337.26 882.57H146.73L124.83 876L111.69 867.24L100.74 854.1L96.36 838.77V788.4L98.55 584.73V488.37L83.22 486.18L61.32 475.23L28.47 446.76L17.52 438L4.38 420.48L0 409.53L2.19 387.63L17.52 363.54L24.09 361.35L28.47 352.59L45.99 335.07L61.32 317.55L72.27 306.6L83.22 295.65L94.17 284.7L105.12 273.75L116.07 262.8L124.83 258.42V254.04H129.21L131.4 247.47L142.35 236.52L148.92 234.33L153.3 225.57L159.87 223.38V219H164.25L166.44 212.43L183.96 197.1L199.29 179.58L210.24 168.63L232.14 148.92L243.09 137.97L251.85 129.21H256.23L260.61 120.45L269.37 111.69H273.75V107.31H278.13V102.93L295.65 87.6L306.6 76.65H310.98L315.36 67.89L332.88 52.56L350.4 35.04L365.73 21.9H370.11L372.3 15.33L394.2 2.19L400.77 0ZM394.2 37.23L385.44 45.99V50.37L376.68 54.75L374.49 61.32L367.92 63.51L352.59 81.03L341.64 91.98L330.69 102.93L324.12 107.31V111.69H319.74L313.17 118.26V122.64L306.6 124.83L300.03 131.4V135.78H295.65L284.7 146.73L282.51 153.3L275.94 155.49V159.87H271.56V164.25L262.8 168.63L251.85 179.58L247.47 188.34L238.71 192.72L236.52 199.29L227.76 203.67L225.57 210.24L216.81 214.62L212.43 223.38L203.67 227.76L201.48 234.33H197.1V238.71L190.53 240.9V245.28L181.77 249.66L177.39 258.42H173.01V262.8L166.44 264.99L155.49 275.94L153.3 282.51L144.54 286.89V291.27H140.16V295.65H135.78L124.83 306.6V310.98H120.45V315.36H116.07L100.74 332.88L89.79 343.83L54.75 378.87L39.42 398.58L41.61 407.34L70.08 433.62L85.41 444.57L100.74 433.62V429.24H105.12L116.07 418.29L118.26 411.72L127.02 407.34L146.73 387.63L164.25 372.3L175.2 361.35L199.29 337.26L203.67 335.07V330.69H208.05V326.31L216.81 321.93L232.14 306.6L238.71 302.22V297.84H243.09V293.46L251.85 289.08L262.8 280.32L273.75 269.37L284.7 258.42L297.84 247.47V243.09H302.22L313.17 232.14L330.69 214.62L348.21 199.29L370.11 179.58L383.25 170.82V166.44L394.2 162.06V157.68H416.1L438 173.01L464.28 197.1L475.23 208.05L486.18 219L497.13 227.76L512.46 245.28L523.41 256.23L534.36 267.18L602.25 335.07L613.2 346.02L654.81 387.63H659.19L663.57 396.39L681.09 411.72L707.37 435.81L720.51 446.76L729.27 442.38L755.55 416.1L762.12 407.34V392.01L753.36 376.68L722.7 343.83L707.37 326.31L698.61 315.36H694.23L689.85 306.6L665.76 282.51H661.38L657 273.75L641.67 258.42H637.29L632.91 249.66L611.01 229.95L575.97 197.1L567.21 192.72V188.34L554.07 177.39H549.69L547.5 170.82L529.98 155.49L523.41 153.3L521.22 146.73L503.7 131.4L494.94 122.64H490.56V118.26L473.04 102.93L446.76 78.84H442.38L440.19 72.27L422.67 56.94L409.53 45.99L402.96 37.23H394.2ZM617.58 142.35V186.15L628.53 194.91L639.48 205.86L650.43 216.81L663.57 227.76L676.71 243.09H681.09V247.47H685.47V144.54L683.28 142.35H617.58ZM402.96 188.34L378.87 214.62L286.89 306.6L275.94 315.36V319.74H271.56V324.12L262.8 328.5L199.29 392.01L194.91 394.2V398.58H190.53L179.58 409.53L135.78 453.33V834.39L144.54 843.15L153.3 845.34H313.17L402.96 843.15V812.49L405.15 799.35L416.1 794.97V790.59L431.43 788.4V617.58L440.19 597.87L451.14 586.92L470.85 578.16L534.36 575.97L558.45 578.16L573.78 586.92H578.16L584.73 608.82L586.92 615.39V643.86L584.73 654.81V790.59L606.63 801.54L615.39 825.63L617.58 836.58H678.9L676.71 689.85L674.52 624.15V477.42L676.71 462.09L665.76 451.14H661.38L657 442.38L639.48 427.05L630.72 418.29H626.34L621.96 409.53H617.58V405.15L600.06 389.82L510.27 300.03L494.94 282.51H490.56L486.18 273.75L477.42 269.37L473.04 260.61L466.47 258.42L462.09 249.66L431.43 219L416.1 201.48L405.15 188.34H402.96ZM532.17 606.63L481.8 608.82L466.47 615.39L462.09 624.15V733.65L459.9 786.21L481.8 788.4H551.88L554.07 670.14V611.01L532.17 606.63ZM438 816.87L431.43 819.06V840.96H475.23L584.73 836.58V823.44L582.54 821.25L534.36 819.06L512.46 816.87H438ZM225.57 374.49H335.07L354.78 381.06L365.73 392.01L370.11 413.91V523.41L363.54 534.36L356.97 538.74L234.33 536.55L216.81 525.6L210.24 512.46L208.05 499.32V453.33L210.24 409.53L212.43 402.96L210.24 387.63L221.19 376.68L225.57 374.49ZM236.52 409.53L243.09 501.51H335.07V429.24L332.88 409.53H236.52ZM448.95 374.49H560.64L578.16 381.06L589.11 392.01L593.49 402.96V527.79L586.92 536.55L580.35 538.74H547.5L457.71 536.55L442.38 527.79L433.62 510.27V416.1L435.81 402.96L433.62 387.63L444.57 376.68L448.95 374.49ZM462.09 409.53L464.28 440.19L466.47 499.32L468.66 501.51H558.45V411.72L556.26 409.53H462.09ZM223.38 575.97H339.45L359.16 584.73L367.92 600.06L370.11 617.58V724.89L365.73 733.65L359.16 738.03H245.28L223.38 731.46L214.62 720.51L210.24 713.94L208.05 700.8V657L210.24 608.82V600.06V586.92L223.38 575.97ZM236.52 611.01L243.09 702.99H335.07V632.91L332.88 611.01H236.52Z" fill="black"/>
</svg>
