<svg width="1688" height="952" viewBox="0 0 1688 952" fill="none" xmlns="http://www.w3.org/2000/svg">
<g clip-path="url(#clip0_255_5)">
<path d="M340.976 0.295898H449.008L465.888 13.7999L469.264 172.472L516.528 206.232L536.784 223.112L540.16 229.864V267H607.68V226.488L624.56 209.608L698.832 158.968L749.472 121.832L803.488 88.0719L837.248 67.8159L857.504 71.1919L860.88 74.5679L864.256 13.7999L881.136 0.295898H989.168L1006.05 10.4239L1009.42 17.1759L1012.8 175.848L1066.82 212.984L1080.32 229.864V267H1147.84V226.488L1164.72 209.608L1238.99 158.968L1276.13 131.96L1289.63 128.584V121.832L1330.14 94.8239L1377.41 67.8159L1397.66 71.1919L1407.79 77.9439L1411.17 13.7999L1417.92 3.6719L1428.05 0.295898H1536.08L1549.58 10.4239L1552.96 20.5519V179.224L1566.46 185.976L1606.98 212.984L1617.1 223.112L1620.48 233.24V267H1671.12L1684.62 273.752L1688 280.504V307.512L1677.87 317.64H1620.48V905.064H1677.87L1688 915.192V938.824L1674.5 952.328H13.504L0 938.824V915.192L10.128 905.064H67.52V317.64H10.128L0 307.512V280.504L6.752 270.376L16.88 267H67.52V226.488L84.4 209.608L148.544 165.72L189.056 135.336L249.824 94.8239L297.088 67.8159L317.344 71.1919L320.72 17.1759L330.848 3.6719L340.976 0.295898ZM371.36 50.9359V108.328L418.624 142.088H422V50.9359H371.36ZM911.52 50.9359V108.328L955.408 138.712H962.16V50.9359H911.52ZM1455.06 50.9359V108.328L1485.44 131.96L1505.7 142.088V50.9359H1455.06ZM297.088 121.832L253.2 155.592L182.304 202.856L158.672 216.36L131.664 233.24V239.992L118.16 246.744V905.064H216.064L219.44 726.136L232.944 712.632H374.736L384.864 719.384L388.24 729.512L391.616 905.064H489.52V246.744L374.736 169.096L303.84 121.832H297.088ZM837.248 121.832V128.584L820.368 135.336L783.232 162.344L732.592 196.104L708.96 212.984L685.328 226.488L658.32 246.744V905.064H756.224L759.6 726.136L773.104 712.632H914.896L925.024 719.384L928.4 729.512L931.776 905.064H1029.68V246.744L989.168 216.36L958.784 199.48L881.136 145.464L847.376 121.832H837.248ZM1380.78 121.832L1323.39 162.344L1262.62 202.856L1201.86 243.368L1198.48 246.744V905.064H1296.38L1299.76 722.76L1313.26 712.632H1455.06L1465.18 719.384L1468.56 729.512L1471.94 905.064H1569.84V246.744L1529.33 216.36L1498.94 199.48L1434.8 155.592L1421.3 145.464H1414.54V138.712L1387.54 121.832H1380.78ZM540.16 317.64V905.064H607.68V317.64H540.16ZM1080.32 317.64V905.064H1147.84V317.64H1080.32ZM266.704 759.896V905.064H340.976V759.896H266.704ZM806.864 759.896V905.064H881.136V759.896H806.864ZM1347.02 759.896V905.064H1421.3V759.896H1347.02Z" fill="black"/>
<path d="M1313.26 256.872H1451.68L1468.56 267L1471.94 277.128V412.168L1461.81 429.048L1451.68 432.424H1313.26L1296.38 415.544V273.752L1313.26 256.872ZM1347.02 307.512V381.784H1421.3V307.512H1347.02Z" fill="black"/>
<path d="M773.104 256.872H911.52L928.4 267L931.776 277.128V412.168L921.648 429.048L911.52 432.424H773.104L756.224 415.544V273.752L773.104 256.872ZM806.864 307.512V381.784H881.136V307.512H806.864Z" fill="black"/>
<path d="M232.944 256.872H371.36L388.24 267L391.616 277.128V412.168L381.488 429.048L371.36 432.424H232.944L216.064 415.544V273.752L232.944 256.872ZM266.704 307.512V381.784H340.976V307.512H266.704Z" fill="black"/>
<path d="M1306.51 479.688H1458.43L1468.56 489.816L1471.94 499.944V631.608L1458.43 648.488H1309.89L1296.38 634.984V493.192L1306.51 479.688ZM1347.02 523.576V601.224H1421.3V523.576H1347.02Z" fill="black"/>
<path d="M766.352 479.688H918.272L928.4 489.816L931.776 496.568V631.608L918.272 648.488H769.728L756.224 634.984V493.192L766.352 479.688ZM806.864 523.576V601.224H881.136V523.576H806.864Z" fill="black"/>
<path d="M226.192 479.688H378.112L388.24 489.816L391.616 496.568V631.608L378.112 648.488H229.568L216.064 634.984V493.192L226.192 479.688ZM266.704 523.576V601.224H340.976V523.576H266.704Z" fill="black"/>
</g>
<defs>
<clipPath id="clip0_255_5">
<rect width="1688" height="952" fill="white"/>
</clipPath>
</defs>
</svg>
